<mxfile host="drawio-plugin" modified="2025-10-04T20:53:14.722Z" agent="Mozilla/5.0 (X11; Linux x86_64) AppleWebKit/537.36 (KHTML, like Gecko) Chrome/122.0.0.0 Safari/537.36" version="22.1.22" etag="MjXNdV0-sRHlGThScI3i" type="embed">
  <diagram id="nd4AbTxs7uKBQBiV1ZsE" name="Page-1">
    <mxGraphModel dx="541" dy="320" grid="1" gridSize="10" guides="1" tooltips="1" connect="1" arrows="1" fold="1" page="1" pageScale="1" pageWidth="1100" pageHeight="850" math="0" shadow="0">
      <root>
        <mxCell id="0" />
        <mxCell id="1" parent="0" />
        <mxCell id="23" value="Endpoint set" style="swimlane;fontStyle=1;align=center;verticalAlign=top;childLayout=stackLayout;horizontal=1;startSize=30;horizontalStack=0;resizeParent=1;resizeParentMax=0;resizeLast=0;collapsible=0;marginBottom=0;html=1;rounded=1;absoluteArcSize=1;arcSize=52;whiteSpace=wrap;fixedWidth=0;" vertex="1" parent="1">
          <mxGeometry x="190" y="60" width="660" height="750" as="geometry" />
        </mxCell>
        <mxCell id="24" value="" style="fillColor=none;strokeColor=none;container=1;collapsible=0;recursiveResize=0;" vertex="1" parent="23">
          <mxGeometry y="30" width="660" height="720" as="geometry" />
        </mxCell>
        <mxCell id="33" value="[Creating replic requires&lt;br&gt;account or verification] &amp;amp;&lt;br&gt;[User not logged in]" style="rounded=0;orthogonalLoop=1;jettySize=auto;html=1;spacingBottom=50;edgeStyle=orthogonalEdgeStyle;curved=1;entryX=0;entryY=0.5;entryDx=0;entryDy=0;" edge="1" parent="24" source="31" target="104">
          <mxGeometry relative="1" as="geometry">
            <mxPoint x="220" y="55.000000000000114" as="targetPoint" />
            <Array as="points">
              <mxPoint x="90" y="160" />
            </Array>
          </mxGeometry>
        </mxCell>
        <mxCell id="37" style="edgeStyle=orthogonalEdgeStyle;rounded=0;orthogonalLoop=1;jettySize=auto;html=1;curved=1;entryX=0;entryY=0.5;entryDx=0;entryDy=0;" edge="1" parent="24" source="31" target="48">
          <mxGeometry relative="1" as="geometry">
            <mxPoint x="190" y="235.00000000000023" as="targetPoint" />
            <Array as="points">
              <mxPoint x="90" y="600" />
            </Array>
          </mxGeometry>
        </mxCell>
        <mxCell id="117" value="&lt;span style=&quot;color: rgb(0, 0, 0); font-family: Helvetica; font-size: 11px; font-style: normal; font-variant-ligatures: normal; font-variant-caps: normal; font-weight: 400; letter-spacing: normal; orphans: 2; text-align: center; text-indent: 0px; text-transform: none; widows: 2; word-spacing: 0px; -webkit-text-stroke-width: 0px; background-color: rgb(255, 255, 255); text-decoration-thickness: initial; text-decoration-style: initial; text-decoration-color: initial; float: none; display: inline !important;&quot;&gt;[Creating replic&lt;/span&gt;&lt;br style=&quot;border-color: var(--border-color); color: rgb(0, 0, 0); font-family: Helvetica; font-size: 11px; font-style: normal; font-variant-ligatures: normal; font-variant-caps: normal; font-weight: 400; letter-spacing: normal; orphans: 2; text-align: center; text-indent: 0px; text-transform: none; widows: 2; word-spacing: 0px; -webkit-text-stroke-width: 0px; text-decoration-thickness: initial; text-decoration-style: initial; text-decoration-color: initial;&quot;&gt;&lt;span style=&quot;color: rgb(0, 0, 0); font-family: Helvetica; font-size: 11px; font-style: normal; font-variant-ligatures: normal; font-variant-caps: normal; font-weight: 400; letter-spacing: normal; orphans: 2; text-align: center; text-indent: 0px; text-transform: none; widows: 2; word-spacing: 0px; -webkit-text-stroke-width: 0px; background-color: rgb(255, 255, 255); text-decoration-thickness: initial; text-decoration-style: initial; text-decoration-color: initial; float: none; display: inline !important;&quot;&gt;requires verification] &amp;amp;&lt;/span&gt;&lt;br style=&quot;border-color: var(--border-color); color: rgb(0, 0, 0); font-family: Helvetica; font-size: 11px; font-style: normal; font-variant-ligatures: normal; font-variant-caps: normal; font-weight: 400; letter-spacing: normal; orphans: 2; text-align: center; text-indent: 0px; text-transform: none; widows: 2; word-spacing: 0px; -webkit-text-stroke-width: 0px; text-decoration-thickness: initial; text-decoration-style: initial; text-decoration-color: initial;&quot;&gt;&lt;span style=&quot;color: rgb(0, 0, 0); font-family: Helvetica; font-size: 11px; font-style: normal; font-variant-ligatures: normal; font-variant-caps: normal; font-weight: 400; letter-spacing: normal; orphans: 2; text-align: center; text-indent: 0px; text-transform: none; widows: 2; word-spacing: 0px; -webkit-text-stroke-width: 0px; background-color: rgb(255, 255, 255); text-decoration-thickness: initial; text-decoration-style: initial; text-decoration-color: initial; float: none; display: inline !important;&quot;&gt;[User is not verified]&lt;/span&gt;" style="edgeStyle=orthogonalEdgeStyle;rounded=0;orthogonalLoop=1;jettySize=auto;html=1;spacingBottom=59;curved=1;" edge="1" parent="24" source="31" target="34">
          <mxGeometry x="0.205" y="5" relative="1" as="geometry">
            <Array as="points">
              <mxPoint x="100" y="395" />
            </Array>
            <mxPoint as="offset" />
          </mxGeometry>
        </mxCell>
        <mxCell id="31" value="" style="ellipse;fillColor=strokeColor;html=1;" vertex="1" parent="24">
          <mxGeometry x="80" y="340" width="20" height="20" as="geometry" />
        </mxCell>
        <mxCell id="34" value="Email-not-verified" style="html=1;align=center;verticalAlign=middle;rounded=1;absoluteArcSize=1;arcSize=10;whiteSpace=wrap;fontStyle=1" vertex="1" parent="24">
          <mxGeometry x="240" y="380" width="110" height="30" as="geometry" />
        </mxCell>
        <mxCell id="47" value="Replics" style="swimlane;fontStyle=1;align=center;verticalAlign=top;childLayout=stackLayout;horizontal=1;startSize=30;horizontalStack=0;resizeParent=1;resizeParentMax=0;resizeLast=0;collapsible=0;marginBottom=0;html=1;rounded=1;absoluteArcSize=1;arcSize=52;whiteSpace=wrap;fixedWidth=0;" vertex="1" parent="24">
          <mxGeometry x="240" y="480" width="370" height="210" as="geometry" />
        </mxCell>
        <mxCell id="48" value="" style="fillColor=none;strokeColor=none;container=1;collapsible=0;recursiveResize=0;" vertex="1" parent="47">
          <mxGeometry y="30" width="370" height="180" as="geometry" />
        </mxCell>
        <mxCell id="60" value="" style="edgeStyle=orthogonalEdgeStyle;rounded=0;orthogonalLoop=1;jettySize=auto;html=1;" edge="1" parent="48" source="53" target="56">
          <mxGeometry relative="1" as="geometry">
            <Array as="points">
              <mxPoint x="50" y="70" />
              <mxPoint x="50" y="70" />
            </Array>
          </mxGeometry>
        </mxCell>
        <mxCell id="53" value="" style="ellipse;fillColor=strokeColor;html=1;" vertex="1" parent="48">
          <mxGeometry x="40" y="20" width="20" height="20" as="geometry" />
        </mxCell>
        <mxCell id="55" value="Replic created" style="edgeStyle=orthogonalEdgeStyle;rounded=0;orthogonalLoop=1;jettySize=auto;html=1;curved=1;spacingBottom=17;" edge="1" parent="48" source="56" target="58">
          <mxGeometry relative="1" as="geometry">
            <Array as="points">
              <mxPoint x="75" y="45" />
              <mxPoint x="295" y="45" />
            </Array>
          </mxGeometry>
        </mxCell>
        <mxCell id="56" value="Create replic" style="html=1;align=center;verticalAlign=middle;rounded=1;absoluteArcSize=1;arcSize=10;whiteSpace=wrap;fontStyle=1" vertex="1" parent="48">
          <mxGeometry x="20" y="75" width="110" height="30" as="geometry" />
        </mxCell>
        <mxCell id="57" value="Create another replic,&lt;br&gt;Back" style="edgeStyle=orthogonalEdgeStyle;rounded=0;orthogonalLoop=1;jettySize=auto;html=1;curved=1;spacingTop=32;" edge="1" parent="48" source="58" target="56">
          <mxGeometry relative="1" as="geometry">
            <Array as="points">
              <mxPoint x="295" y="135" />
              <mxPoint x="75" y="135" />
            </Array>
          </mxGeometry>
        </mxCell>
        <mxCell id="58" value="Replic created" style="html=1;align=center;verticalAlign=middle;rounded=1;absoluteArcSize=1;arcSize=10;whiteSpace=wrap;fontStyle=1" vertex="1" parent="48">
          <mxGeometry x="240" y="75" width="110" height="30" as="geometry" />
        </mxCell>
        <mxCell id="103" value="Authentication" style="swimlane;fontStyle=1;align=center;verticalAlign=top;childLayout=stackLayout;horizontal=1;startSize=30;horizontalStack=0;resizeParent=1;resizeParentMax=0;resizeLast=0;collapsible=0;marginBottom=0;html=1;rounded=1;absoluteArcSize=1;arcSize=52;whiteSpace=wrap;fixedWidth=0;" vertex="1" parent="24">
          <mxGeometry x="250" y="50" width="350" height="190" as="geometry" />
        </mxCell>
        <mxCell id="104" value="" style="fillColor=none;strokeColor=none;container=1;collapsible=0;recursiveResize=0;" vertex="1" parent="103">
          <mxGeometry y="30" width="350" height="160" as="geometry" />
        </mxCell>
        <mxCell id="114" value="Login instead" style="edgeStyle=orthogonalEdgeStyle;rounded=0;orthogonalLoop=1;jettySize=auto;html=1;curved=1;" edge="1" parent="104" source="111" target="112">
          <mxGeometry relative="1" as="geometry">
            <mxPoint x="85" y="120" as="sourcePoint" />
            <Array as="points">
              <mxPoint x="265" y="110" />
              <mxPoint x="85" y="110" />
            </Array>
          </mxGeometry>
        </mxCell>
        <mxCell id="111" value="Signup" style="html=1;align=center;verticalAlign=middle;rounded=1;absoluteArcSize=1;arcSize=10;whiteSpace=wrap;fontStyle=1" vertex="1" parent="104">
          <mxGeometry x="200" y="54.97" width="130" height="30" as="geometry" />
        </mxCell>
        <mxCell id="113" value="Signup instead" style="edgeStyle=orthogonalEdgeStyle;rounded=0;orthogonalLoop=1;jettySize=auto;html=1;curved=1;" edge="1" parent="104" source="112" target="111">
          <mxGeometry relative="1" as="geometry">
            <Array as="points">
              <mxPoint x="85" y="20" />
              <mxPoint x="265" y="20" />
            </Array>
          </mxGeometry>
        </mxCell>
        <mxCell id="112" value="Login" style="html=1;align=center;verticalAlign=middle;rounded=1;absoluteArcSize=1;arcSize=10;whiteSpace=wrap;fontStyle=1" vertex="1" parent="104">
          <mxGeometry x="50" y="54.97" width="80" height="30" as="geometry" />
        </mxCell>
        <mxCell id="127" style="edgeStyle=orthogonalEdgeStyle;rounded=0;orthogonalLoop=1;jettySize=auto;html=1;curved=1;" edge="1" parent="104" source="126" target="112">
          <mxGeometry relative="1" as="geometry">
            <Array as="points">
              <mxPoint x="20" y="70" />
            </Array>
          </mxGeometry>
        </mxCell>
        <mxCell id="126" value="" style="ellipse;fillColor=strokeColor;html=1;" vertex="1" parent="104">
          <mxGeometry x="10" y="100" width="20" height="20" as="geometry" />
        </mxCell>
        <mxCell id="118" value="&lt;span style=&quot;border-color: var(--border-color); color: rgb(0, 0, 0); font-family: Helvetica; font-size: 11px; font-style: normal; font-variant-ligatures: normal; font-variant-caps: normal; font-weight: 400; letter-spacing: normal; orphans: 2; text-align: center; text-indent: 0px; text-transform: none; widows: 2; word-spacing: 0px; -webkit-text-stroke-width: 0px; background-color: rgb(255, 255, 255); text-decoration-thickness: initial; text-decoration-style: initial; text-decoration-color: initial; float: none; display: inline !important;&quot;&gt;Authenticated&lt;br&gt;[Creating replic&lt;/span&gt;&lt;br style=&quot;border-color: var(--border-color); color: rgb(0, 0, 0); font-family: Helvetica; font-size: 11px; font-style: normal; font-variant-ligatures: normal; font-variant-caps: normal; font-weight: 400; letter-spacing: normal; orphans: 2; text-align: center; text-indent: 0px; text-transform: none; widows: 2; word-spacing: 0px; -webkit-text-stroke-width: 0px; text-decoration-thickness: initial; text-decoration-style: initial; text-decoration-color: initial;&quot;&gt;&lt;span style=&quot;border-color: var(--border-color); color: rgb(0, 0, 0); font-family: Helvetica; font-size: 11px; font-style: normal; font-variant-ligatures: normal; font-variant-caps: normal; font-weight: 400; letter-spacing: normal; orphans: 2; text-align: center; text-indent: 0px; text-transform: none; widows: 2; word-spacing: 0px; -webkit-text-stroke-width: 0px; background-color: rgb(255, 255, 255); text-decoration-thickness: initial; text-decoration-style: initial; text-decoration-color: initial; float: none; display: inline !important;&quot;&gt;requires verification] &amp;amp;&lt;/span&gt;&lt;br style=&quot;border-color: var(--border-color); color: rgb(0, 0, 0); font-family: Helvetica; font-size: 11px; font-style: normal; font-variant-ligatures: normal; font-variant-caps: normal; font-weight: 400; letter-spacing: normal; orphans: 2; text-align: center; text-indent: 0px; text-transform: none; widows: 2; word-spacing: 0px; -webkit-text-stroke-width: 0px; text-decoration-thickness: initial; text-decoration-style: initial; text-decoration-color: initial;&quot;&gt;&lt;span style=&quot;border-color: var(--border-color); color: rgb(0, 0, 0); font-family: Helvetica; font-size: 11px; font-style: normal; font-variant-ligatures: normal; font-variant-caps: normal; font-weight: 400; letter-spacing: normal; orphans: 2; text-align: center; text-indent: 0px; text-transform: none; widows: 2; word-spacing: 0px; -webkit-text-stroke-width: 0px; background-color: rgb(255, 255, 255); text-decoration-thickness: initial; text-decoration-style: initial; text-decoration-color: initial; float: none; display: inline !important;&quot;&gt;[User is not verified]&lt;/span&gt;" style="edgeStyle=orthogonalEdgeStyle;rounded=0;orthogonalLoop=1;jettySize=auto;html=1;curved=1;spacingBottom=0;spacingRight=0;spacingTop=70;spacingLeft=30;" edge="1" parent="24" source="104" target="34">
          <mxGeometry relative="1" as="geometry" />
        </mxCell>
        <mxCell id="119" value="Authenticated" style="edgeStyle=orthogonalEdgeStyle;rounded=0;orthogonalLoop=1;jettySize=auto;html=1;curved=1;spacingLeft=60;" edge="1" parent="24" source="104" target="47">
          <mxGeometry relative="1" as="geometry">
            <Array as="points">
              <mxPoint x="480" y="360" />
              <mxPoint x="480" y="360" />
            </Array>
          </mxGeometry>
        </mxCell>
        <mxCell id="120" value="Endpoint&lt;br&gt;updated" style="edgeStyle=orthogonalEdgeStyle;rounded=0;orthogonalLoop=1;jettySize=auto;html=1;curved=1;spacingBottom=47;spacingRight=16;" edge="1" parent="1" source="38" target="24">
          <mxGeometry relative="1" as="geometry" />
        </mxCell>
        <mxCell id="38" value="Set endpoint" style="html=1;align=center;verticalAlign=middle;rounded=1;absoluteArcSize=1;arcSize=10;whiteSpace=wrap;fontStyle=1" vertex="1" parent="1">
          <mxGeometry x="10" y="455" width="100" height="30" as="geometry" />
        </mxCell>
        <mxCell id="41" style="edgeStyle=orthogonalEdgeStyle;rounded=0;orthogonalLoop=1;jettySize=auto;html=1;" edge="1" parent="1" source="40" target="38">
          <mxGeometry relative="1" as="geometry" />
        </mxCell>
        <mxCell id="40" value="" style="ellipse;fillColor=strokeColor;html=1;" vertex="1" parent="1">
          <mxGeometry x="50" y="400" width="20" height="20" as="geometry" />
        </mxCell>
        <mxCell id="76" value="Change&lt;br&gt;endpoint" style="edgeStyle=orthogonalEdgeStyle;rounded=0;orthogonalLoop=1;jettySize=auto;html=1;entryX=0.5;entryY=1;entryDx=0;entryDy=0;curved=1;exitX=0;exitY=0.75;exitDx=0;exitDy=0;" edge="1" parent="1" source="24" target="38">
          <mxGeometry relative="1" as="geometry">
            <Array as="points">
              <mxPoint x="60" y="630" />
            </Array>
          </mxGeometry>
        </mxCell>
      </root>
    </mxGraphModel>
  </diagram>
</mxfile>
